<svg width="24" height="24" viewBox="0 0 24 24" fill="none" xmlns="http://www.w3.org/2000/svg">
<path d="M21.5969 11.9976L12.3857 21.2088C11.1071 22.4546 9.38916 23.1466 7.604 23.1349C5.81884 23.1233 4.11009 22.409 2.84777 21.1467C1.58544 19.8844 0.871135 18.1756 0.859519 16.3905C0.847903 14.6053 1.53991 12.8874 2.7857 11.6088L12.2721 2.12236C13.1208 1.27367 14.2719 0.796875 15.4721 0.796875C16.6723 0.796875 17.8234 1.27367 18.6721 2.12236C19.5208 2.97105 19.9976 4.12213 19.9976 5.32236C19.9976 6.52259 19.5208 7.67367 18.6721 8.52236L9.4593 17.7352C9.03496 18.1595 8.45942 18.3979 7.8593 18.3979C7.25919 18.3979 6.68365 18.1595 6.2593 17.7352C5.83496 17.3108 5.59656 16.7353 5.59656 16.1352C5.59656 15.535 5.83496 14.9595 6.2593 14.5352L15.1969 5.59756" stroke="url(#paint0_linear_575_15067)" stroke-width="1.5"/>
<defs>
<linearGradient id="paint0_linear_575_15067" x1="11.2281" y1="0.796875" x2="11.2281" y2="23.1351" gradientUnits="userSpaceOnUse">
<stop stop-color="#335FFF"/>
<stop offset="1" stop-color="#1A4BFF"/>
</linearGradient>
</defs>
</svg>
