<svg width="159" height="41" viewBox="0 0 159 41" fill="none" xmlns="http://www.w3.org/2000/svg">
<g clip-path="url(#clip0_1_3374)">
<path d="M29.6241 29.9797C28.037 29.8674 26.494 29.4875 24.9333 29.2198C21.579 28.6499 18.3147 27.7087 15.0417 26.802C11.7445 25.8737 8.41 24.9692 5.31944 23.43C3.56094 22.5536 1.86179 21.5454 0.892415 19.7752C-0.404477 17.4006 -0.400081 15.2181 1.65077 12.6406C3.76756 9.98097 6.70645 8.38997 9.71568 6.9436C12.7418 5.50667 15.8534 4.25016 19.0335 3.18089C20.3524 2.72755 21.6998 2.35625 23.0341 1.94393C23.1418 1.90939 23.2407 1.8511 23.3902 1.99358C23.0693 2.20945 22.7659 2.44692 22.4428 2.6412C20.7107 3.74001 19.4314 5.26409 18.2664 6.90258C16.321 9.64204 15.6286 12.6902 15.8792 15.9801C15.9869 17.4006 16.8354 18.5145 17.5366 19.6802C19.0115 22.1412 21.1349 23.9978 23.4408 25.6751C25.463 27.1582 27.5513 28.5506 29.6153 29.9775L29.6241 29.9797ZM6.30859 25.0707C6.32398 25.252 6.48004 25.3297 6.59874 25.4333C9.76561 28.1704 13.1637 30.6381 16.7563 32.8098C19.7683 34.6413 22.8748 36.3188 26.0631 37.8354C27.8722 38.6989 29.6658 39.666 31.7189 39.9099C33.4774 40.1258 35.1655 40.0049 36.6757 38.9774C38.7309 37.5806 38.9925 35.0635 37.212 33.5114C36.2871 32.7144 35.179 32.1499 33.983 31.8664C30.888 31.1087 27.7073 30.8173 24.5728 30.2646C21.2756 29.6818 18.0466 28.8355 14.8263 27.9375C11.9336 27.1323 9.06504 26.2493 6.2998 25.0685L6.30859 25.0707ZM23.9683 8.69003C26.0917 7.93879 28.3096 7.5243 30.4835 6.96303C31.9035 6.58956 33.3125 6.24416 34.3852 5.12593C35.7986 3.64934 35.3128 0.808422 33.2488 0.232034C32.2103 -0.0510145 31.1164 -0.0754982 30.0659 0.160796C27.648 0.668103 25.5927 1.94393 23.599 3.28451C21.5504 4.6618 19.9919 6.5356 18.6532 8.56698C17.5168 10.294 17.0156 12.2369 16.8948 14.3136C18.5741 11.5677 20.9635 9.7543 23.9683 8.69003Z" fill="white"/>
<path d="M48.3691 14.093C48.3691 11.2938 50.1767 9.89354 53.7919 9.8921C54.97 9.89298 56.1427 10.0498 57.2781 10.3584V12.3013C56.1233 11.9705 54.9267 11.8012 53.7238 11.7983C52.5368 11.7983 51.703 12.0005 51.2223 12.4049C50.7409 12.8086 50.4991 13.4065 50.4991 14.1945V25.7654C50.4991 26.5354 50.7453 27.1226 51.2377 27.527C51.7301 27.9314 52.5939 28.1336 53.8293 28.1336C55.0185 28.1407 56.2027 27.9815 57.3463 27.6608V29.5843C56.1925 29.9201 54.9929 30.0796 53.7897 30.057C50.1745 30.057 48.3669 28.656 48.3669 25.8539L48.3691 14.093Z" fill="white"/>
<path d="M60.2381 14.4602C60.2381 13.0599 60.6697 11.9251 61.5328 11.0559C62.396 10.1866 63.6665 9.75486 65.3444 9.76062C67.0208 9.76062 68.2913 10.1924 69.1559 11.0559C70.0205 11.9194 70.4506 13.0542 70.4462 14.4602V25.5584C70.4462 26.9601 70.0139 28.0892 69.1493 28.9455C68.2847 29.8018 67.0091 30.2335 65.3224 30.2407C63.6372 30.2407 62.3666 29.809 61.5108 28.9455C60.655 28.082 60.2308 26.9493 60.2381 25.5476V14.4602ZM68.314 14.4904C68.314 12.6195 67.3241 11.6841 65.3444 11.6841C63.3646 11.6841 62.3754 12.6195 62.3769 14.4904V25.5001C62.3769 27.3955 63.3661 28.3425 65.3444 28.341C67.3227 28.3396 68.3126 27.3926 68.314 25.5001V14.4904Z" fill="white"/>
<path d="M88.5549 10.0391V29.9255H86.504V19.4512C86.504 17.4177 86.5648 15.4547 86.6865 13.5622L82.5584 24.6301H80.2965L76.1091 13.5622C76.2556 15.3971 76.3289 17.3501 76.3289 19.421V29.9255H74.3044V10.0391H76.8323L81.4132 22.4994L85.9919 10.0391H88.5549Z" fill="white"/>
<path d="M92.7107 10.0391H101.479V11.9042H94.8517V18.9763H100.637V20.8415H94.8517V28.0603H101.479V29.9234H92.7107V10.0391Z" fill="white"/>
<path d="M120.436 14.5379V16.2239C120.436 18.1193 119.693 19.3426 118.207 19.8938C119.812 20.4263 120.618 21.6791 120.625 23.6522V25.4288C120.625 26.8291 120.218 27.9287 119.405 28.7274C118.592 29.5261 117.381 29.9255 115.774 29.9255H110.371V10.0391H115.585C117.197 10.0391 118.407 10.4384 119.216 11.2372C120.025 12.0359 120.432 13.1362 120.436 14.5379ZM115.411 11.8697H112.512V18.9936H115.411C117.338 18.9936 118.302 18.0862 118.304 16.2714V14.5962C118.299 12.7785 117.335 11.8697 115.411 11.8697ZM118.489 25.3641V23.5896C118.489 21.7748 117.524 20.8674 115.596 20.8674H112.518V28.0863H115.596C117.515 28.0891 118.48 27.1832 118.489 25.3684V25.3641Z" fill="white"/>
<path d="M132.94 29.9255L131.705 24.3624H126.28L125.045 29.9255H122.906L127.487 10.0391H130.498L135.079 29.9255H132.94ZM126.671 22.5275H131.287L128.962 12.0856L126.671 22.5275Z" fill="white"/>
<path d="M137.371 14.093C137.371 11.2938 139.178 9.89354 142.794 9.8921C143.975 9.8922 145.15 10.0491 146.289 10.3584V12.3013C145.134 11.9705 143.937 11.8012 142.734 11.7983C141.549 11.7983 140.715 12.0005 140.233 12.4049C139.751 12.8086 139.51 13.4065 139.51 14.1945V25.7654C139.51 26.5354 139.756 27.1226 140.248 27.527C140.741 27.9314 141.604 28.1336 142.84 28.1336C144.029 28.1407 145.213 27.9815 146.357 27.6608V29.5843C145.203 29.9201 144.003 30.0796 142.8 30.057C139.184 30.057 137.376 28.656 137.377 25.8539L137.371 14.093Z" fill="white"/>
<path d="M149.545 10.0391H151.681V29.9255H149.543L149.545 10.0391ZM157.441 10.0391H159.76L155.511 19.9542L160.001 29.9255H157.616L153.22 20.0125L157.441 10.0391Z" fill="white"/>
</g>
<defs>
<clipPath id="clip0_1_3374">
<rect width="159" height="41" fill="white"/>
</clipPath>
</defs>
</svg>
